<?xml version="1.0" standalone="no"?><svg xmlns="http://www.w3.org/2000/svg" viewBox="0 0 1440 320"><path fill="#ffffff" fill-opacity="1" d="M0,96L15,96C30,96,60,96,90,106.7C120,117,150,139,180,170.7C210,203,240,245,270,240C300,235,330,181,360,149.3C390,117,420,107,450,138.7C480,171,510,245,540,250.7C570,256,600,192,630,165.3C660,139,690,149,720,160C750,171,780,181,810,170.7C840,160,870,128,900,144C930,160,960,224,990,224C1020,224,1050,160,1080,144C1110,128,1140,160,1170,170.7C1200,181,1230,171,1260,160C1290,149,1320,139,1350,149.3C1380,160,1410,192,1425,208L1440,224L1440,320L1425,320C1410,320,1380,320,1350,320C1320,320,1290,320,1260,320C1230,320,1200,320,1170,320C1140,320,1110,320,1080,320C1050,320,1020,320,990,320C960,320,930,320,900,320C870,320,840,320,810,320C780,320,750,320,720,320C690,320,660,320,630,320C600,320,570,320,540,320C510,320,480,320,450,320C420,320,390,320,360,320C330,320,300,320,270,320C240,320,210,320,180,320C150,320,120,320,90,320C60,320,30,320,15,320L0,320Z"></path></svg>