<?xml version="1.0" standalone="no"?><svg xmlns="http://www.w3.org/2000/svg" viewBox="0 0 1440 320"><path fill="#ffffff" fill-opacity="1" d="M0,160L15,170.7C30,181,60,203,90,197.3C120,192,150,160,180,176C210,192,240,256,270,266.7C300,277,330,235,360,224C390,213,420,235,450,234.7C480,235,510,213,540,192C570,171,600,149,630,165.3C660,181,690,235,720,218.7C750,203,780,117,810,106.7C840,96,870,160,900,170.7C930,181,960,139,990,138.7C1020,139,1050,181,1080,213.3C1110,245,1140,267,1170,245.3C1200,224,1230,160,1260,128C1290,96,1320,96,1350,112C1380,128,1410,160,1425,176L1440,192L1440,0L1425,0C1410,0,1380,0,1350,0C1320,0,1290,0,1260,0C1230,0,1200,0,1170,0C1140,0,1110,0,1080,0C1050,0,1020,0,990,0C960,0,930,0,900,0C870,0,840,0,810,0C780,0,750,0,720,0C690,0,660,0,630,0C600,0,570,0,540,0C510,0,480,0,450,0C420,0,390,0,360,0C330,0,300,0,270,0C240,0,210,0,180,0C150,0,120,0,90,0C60,0,30,0,15,0L0,0Z"></path></svg>